<svg height='100px' width='100px'  fill="#000000" xmlns="http://www.w3.org/2000/svg" xmlns:xlink="http://www.w3.org/1999/xlink" version="1.1" x="0px" y="0px" viewBox="0 645.5 100 100" enable-background="new 0 645.5 100 100" xml:space="preserve"><path fill="#000000" d="M83.388,691.41l-0.828-4.775c-0.039-0.228-0.188-0.422-0.396-0.52c-0.207-0.1-0.451-0.09-0.652,0.024  l-10.851,6.184l-5.928-4.475l1.626-5.399c0.072-0.241,0.012-0.503-0.16-0.687l-4.633-4.979c-0.15-0.162-0.373-0.248-0.585-0.223  l-15.809,1.496c-0.021,0.002-0.039,0.013-0.059,0.017c-0.017,0.003-0.033-0.002-0.05,0.002c-0.021,0.005-0.035,0.02-0.054,0.026  c-0.025,0.009-0.052,0.01-0.075,0.021l-9.09,4.348c-0.005,0.002-0.009,0.007-0.014,0.01c-0.003,0.001-0.007,0-0.01,0.002  l-18.735,9.826c-0.156,0.046-0.278,0.155-0.363,0.295c-0.005,0.009-0.011,0.016-0.016,0.023c-0.057,0.104-0.099,0.216-0.103,0.339  c0,0.001,0,0.002,0,0.003s-0.001,0.002-0.001,0.003c0,0.007,0.004,0.012,0.004,0.019c0,0.11,0.029,0.211,0.074,0.305  c0.014,0.029,0.032,0.052,0.05,0.079c0.047,0.072,0.105,0.132,0.176,0.183c0.017,0.012,0.024,0.032,0.042,0.043l18.771,11.157  c9.219,8.765,10.608,9.688,11.135,9.688c0.069,0,0.123-0.016,0.178-0.031c0.242-0.07,0.429-0.229,0.49-0.473  c0.226-0.543,3.188-5.118,5.127-8.064l2.556-0.297l0.916,4.035c0.008,0.034,0.028,0.062,0.041,0.094  c0.015,0.038,0.026,0.076,0.048,0.112c0.027,0.044,0.062,0.08,0.099,0.118c0.021,0.022,0.034,0.051,0.06,0.071  c0.007,0.006,0.016,0.007,0.022,0.013c0.006,0.004,0.009,0.011,0.015,0.015l6.08,4.276c0.123,0.087,0.266,0.129,0.407,0.129  c0.199,0,0.397-0.085,0.537-0.246l5.58-6.48c0.241-0.28,0.227-0.698-0.033-0.961l-3.158-3.193l4.356-1.244l8.695,7.189  c0.13,0.108,0.291,0.163,0.451,0.163c0.146,0,0.291-0.045,0.416-0.135l2.954-2.139c0.278-0.202,0.372-0.574,0.222-0.884  l-3.707-7.641c-0.006-0.013-0.018-0.02-0.024-0.031c-0.032-0.06-0.073-0.112-0.122-0.16c-0.015-0.015-0.026-0.029-0.042-0.042  c-0.008-0.007-0.014-0.016-0.022-0.022l-1.063-0.803l5.282-5.806C83.36,691.847,83.425,691.626,83.388,691.41z M77.007,698.891  l-15.063,4.304l2.463-13.816L77.007,698.891z M52.219,704.499l-15.361-0.977v-19.564l26.232,4.73l-2.648,14.855L52.219,704.499z   M64.884,682.43l-1.469,4.877l-15.989-2.883l-1.294-5.034l14.634-1.385L64.884,682.43z M44.767,679.773l1.124,4.373l-7.456-1.344  L44.767,679.773z M35.44,692.916l-15.432-0.54l15.432-8.094V692.916z M20.051,693.795l15.39,0.539v8.607L20.051,693.795z   M46.577,712.739c-1.35-1.062-4.976-4.378-8.52-7.721l12.92,0.821C48.725,709.271,47.246,711.589,46.577,712.739z M59.411,705.091  l-2.232,2.778l-0.557-2.454L59.411,705.091z M67.509,707.286l-4.734,5.498l-4.936-3.472l3.62-4.506l2.805-0.801L67.509,707.286z   M79.35,708.065l-7.523-6.221l6.364-1.818l3.188,6.57L79.35,708.065z M76.796,696.956l-4.905-3.704l9.445-5.381l0.596,3.439  L76.796,696.956z"></path></svg>