<svg height='100px' width='100px'  fill="#000000" xmlns="http://www.w3.org/2000/svg" xmlns:xlink="http://www.w3.org/1999/xlink" version="1.1" x="0px" y="0px" viewBox="432 424.5 100 100" enable-background="new 432 424.5 100 100" xml:space="preserve"><path fill="#000000" d="M505.969,489.286l-6.752-11.58c-0.073-0.125-0.183-0.225-0.314-0.285L483.75,470.4l-8.578-31.897  l0.782,0.045c0.014,0.001,0.027,0.002,0.041,0.002c0.249,0,0.48-0.131,0.608-0.347c0.136-0.227,0.134-0.51-0.006-0.734l-0.766-1.238  l2.046-0.438c0.278-0.06,0.493-0.279,0.547-0.559c0.055-0.279-0.063-0.563-0.299-0.723l-5.877-3.961  c-0.011-0.007-0.022-0.008-0.033-0.014c-0.025-0.016-0.053-0.021-0.079-0.033c-0.078-0.035-0.156-0.057-0.238-0.062  c-0.017-0.001-0.029-0.012-0.046-0.012h-4.804c-0.157,0-0.311,0.053-0.435,0.149l-4.318,3.352c-0.166,0.128-0.266,0.323-0.273,0.533  l-0.097,2.586c-0.015,0.386,0.282,0.712,0.667,0.733l5.182,0.297l6.722,37.765l-5.11,11.726c-0.028,0.065-0.047,0.135-0.055,0.205  c-0.001,0.007,0.001,0.014,0.001,0.021c-0.005,0.062-0.005,0.127,0.007,0.189l5.356,28.295c0.063,0.335,0.355,0.577,0.696,0.577  h3.117c0.198,0,0.389-0.084,0.522-0.23s0.201-0.343,0.184-0.54l-0.065-0.751l0.72,2.709c0.082,0.311,0.363,0.527,0.685,0.527h2.598  c0.392,0,0.709-0.317,0.709-0.709v-22.635h10.659v20.92c0,0.392,0.317,0.709,0.709,0.709h1.883c0.269,0,0.514-0.152,0.634-0.393  l0.54-1.081v2.479c0,0.392,0.317,0.709,0.709,0.709h2.077c0.325,0,0.609-0.222,0.688-0.538l4.285-17.25  c0.014-0.056,0.021-0.113,0.021-0.171v-6.094v-4.875C506.065,489.519,506.032,489.395,505.969,489.286z M504.647,489.835v3.975  h-21.2l-9.016-9.129l1.443-8.319l7.33-4.652l14.899,6.904L504.647,489.835z M473.019,484.534l-1.179,0.951l1.684-3.864  L473.019,484.534z M475.041,434.949l-0.856-1.385l1.767,1.19L475.041,434.949z M463.427,434.847l3.865-3h4.165l2.642,4.274  c0.001,0.002,0.002,0.003,0.003,0.005l0.575,0.93l-11.309-0.648L463.427,434.847z M473.681,438.418l8.651,32.166l-6.589,4.182  l-6.515-36.604L473.681,438.418z M477.735,515.438h-1.757l-5.168-27.301l1.806-1.456l-0.421,2.221  c-0.02,0.104-0.016,0.211,0.012,0.313l4.821,18.141L477.735,515.438z M481.099,517.153l-7.48-28.146l0.498-2.63l8.326,8.431v22.345  H481.099z M496.673,515.438h-0.735v-20.211h2.348v16.984L496.673,515.438z M500.518,517.153h-0.814v-21.926h4.944v5.298  L500.518,517.153z"></path></svg>