<?xml version="1.0" encoding="utf-8"?>
<!-- Generator: Adobe Illustrator 23.1.0, SVG Export Plug-In . SVG Version: 6.00 Build 0)  -->
<svg version="1.1" id="Layer_1" xmlns="http://www.w3.org/2000/svg" xmlns:xlink="http://www.w3.org/1999/xlink" x="0px" y="0px"
	 viewBox="0 0 100 100" style="enable-background:new 0 0 100 100;" xml:space="preserve">
<path d="M72,64.8l-6.8-11.6c-0.1-0.1-0.2-0.2-0.3-0.3l-15.2-7L41.2,14l0.8,0c0,0,0,0,0,0c0.2,0,0.5-0.1,0.6-0.3
	c0.1-0.2,0.1-0.5,0-0.7l-0.8-1.2l2-0.4c0.3-0.1,0.5-0.3,0.5-0.6c0.1-0.3-0.1-0.6-0.3-0.7l-5.9-4c0,0,0,0,0,0c0,0-0.1,0-0.1,0
	c-0.1,0-0.2-0.1-0.2-0.1c0,0,0,0,0,0h-4.8c-0.2,0-0.3,0.1-0.4,0.1l-4.3,3.4C28.1,9.6,28,9.8,28,10l-0.1,2.6c0,0.4,0.3,0.7,0.7,0.7
	l5.2,0.3l6.7,37.8l-5.1,11.7c0,0.1,0,0.1-0.1,0.2c0,0,0,0,0,0c0,0.1,0,0.1,0,0.2l5.4,28.3c0.1,0.3,0.4,0.6,0.7,0.6h3.1
	c0.2,0,0.4-0.1,0.5-0.2s0.2-0.3,0.2-0.5l-0.1-0.8l0.7,2.7c0.1,0.3,0.4,0.5,0.7,0.5h2.6c0.4,0,0.7-0.3,0.7-0.7V70.7h10.7v20.9
	c0,0.4,0.3,0.7,0.7,0.7h1.9c0.3,0,0.5-0.2,0.6-0.4l0.5-1.1v2.5c0,0.4,0.3,0.7,0.7,0.7h2.1c0.3,0,0.6-0.2,0.7-0.5L72,76.3
	c0-0.1,0-0.1,0-0.2V70v-4.9C72.1,65,72,64.9,72,64.8z M70.7,65.3v4H49.5l-9-9.1l1.4-8.3l7.3-4.7l14.9,6.9L70.7,65.3z M39,60l-1.2,1
	l1.7-3.9L39,60z M41,10.4l-0.9-1.4l1.8,1.2L41,10.4z M29.4,10.3l3.9-3h4.2l2.6,4.3c0,0,0,0,0,0l0.6,0.9l-11.3-0.6L29.4,10.3z
	 M39.7,13.9l8.7,32.2l-6.6,4.2l-6.5-36.6L39.7,13.9z M43.7,90.9H42l-5.2-27.3l1.8-1.5l-0.4,2.2c0,0.1,0,0.2,0,0.3L43,82.9L43.7,90.9
	z M47.1,92.7l-7.5-28.1l0.5-2.6l8.3,8.4v22.3H47.1z M62.7,90.9h-0.7V70.7h2.3v17L62.7,90.9z M66.5,92.7h-0.8V70.7h4.9V76L66.5,92.7z
	"/>
</svg>
